<?xml version="1.0" encoding="UTF-8" standalone="no"?>
<!-- Created with Inkscape (http://www.inkscape.org/) -->

<svg
   width="194.53038mm"
   height="71.894127mm"
   viewBox="0 0 194.53038 71.894127"
   version="1.1"
   id="svg5"
   inkscape:version="1.1.2 (0a00cf5339, 2022-02-04)"
   sodipodi:docname="welcome-header.svg"
   xmlns:inkscape="http://www.inkscape.org/namespaces/inkscape"
   xmlns:sodipodi="http://sodipodi.sourceforge.net/DTD/sodipodi-0.dtd"
   xmlns="http://www.w3.org/2000/svg"
   xmlns:svg="http://www.w3.org/2000/svg">
  <sodipodi:namedview
     id="namedview7"
     pagecolor="#ffffff"
     bordercolor="#666666"
     borderopacity="1.0"
     inkscape:pageshadow="2"
     inkscape:pageopacity="0.0"
     inkscape:pagecheckerboard="0"
     inkscape:document-units="mm"
     showgrid="false"
     fit-margin-top="0"
     fit-margin-left="0"
     fit-margin-right="0"
     fit-margin-bottom="0"
     inkscape:zoom="0.71624579"
     inkscape:cx="379.7579"
     inkscape:cy="169.6345"
     inkscape:window-width="1551"
     inkscape:window-height="722"
     inkscape:window-x="216"
     inkscape:window-y="136"
     inkscape:window-maximized="0"
     inkscape:current-layer="layer1" />
  <defs
     id="defs2" />
  <g
     inkscape:label="Layer 1"
     inkscape:groupmode="layer"
     id="layer1"
     transform="translate(-4.3513585,-103.35286)">
    <path
       style="fill:#000000;stroke-width:0.264583"
       d="m 174.5446,175.04671 c -1.25014,-0.39144 -2.8454,-1.91904 -3.63175,-3.47772 -1.79268,-3.55343 -1.64766,-8.67599 0.36157,-12.77121 0.42194,-0.85999 0.76715,-1.6064 0.76715,-1.65869 0,-0.17257 -1.44079,0.24657 -2.2474,0.65379 -1.70476,0.86065 -3.71486,2.65257 -6.66546,5.94198 -5.88734,6.56335 -9.46576,8.6715 -13.31718,7.84552 -1.71399,-0.36758 -2.91171,-1.39892 -3.73186,-3.21342 -0.53989,-1.19444 -0.62581,-1.78353 -0.60809,-4.16911 0.018,-2.42075 0.11157,-2.97807 0.7276,-4.3324 0.38884,-0.85486 0.70698,-1.62379 0.70698,-1.70874 0,-0.0849 -0.50602,0.33056 -1.12448,0.92337 -3.13117,3.00125 -8.93018,5.85811 -14.48594,7.13642 -3.06035,0.70415 -8.33493,0.66009 -10.71923,-0.0895 -3.12472,-0.98242 -5.06943,-2.57999 -6.44461,-5.29422 -0.77315,-1.52599 -1.34838,-4.10948 -1.35308,-6.07697 l -0.004,-1.63687 -2.18281,0.74422 c -6.53107,2.22672 -9.76551,4.6332 -14.258979,10.60896 -3.601815,4.78997 -5.022366,5.98814 -7.679127,6.47699 -1.27372,0.23437 -3.634301,-0.45543 -4.738719,-1.38474 -1.142355,-0.96123 -1.81914,-2.54378 -1.826218,-4.27031 -0.0051,-1.2443 -0.06235,-1.39431 -0.468831,-1.2285 -4.155535,1.69505 -8.159599,2.51358 -12.295873,2.51358 -4.367311,0 -6.148936,-0.57789 -8.254916,-2.67758 l -1.566931,-1.56225 -2.269527,1.17121 c -6.341722,3.27269 -12.931556,5.10841 -20.062755,5.58883 -1.491588,0.10048 -2.711979,0.10896 -2.711979,0.0188 0,-0.32124 2.719435,-1.46262 12.700001,-5.3304 2.110052,-0.81771 5.304287,-2.20853 7.098302,-3.09071 2.913113,-1.43249 3.242784,-1.66347 3.083561,-2.16044 -0.69732,-2.17644 -0.71292,-6.61957 -0.03261,-9.28771 0.543891,-2.13311 0.476089,-2.69845 -0.240604,-2.00616 -0.138245,0.13354 -0.958033,0.62812 -1.821752,1.09907 -4.46111,2.43247 -7.896069,2.46024 -9.515568,0.0769 -0.581377,-0.85557 -0.952576,-0.92525 -0.952576,-0.17882 0,0.85521 -1.373926,2.48112 -2.637783,3.12157 -3.124919,1.58351 -7.106282,0.43139 -8.594376,-2.48705 l -0.595661,-1.1682 -0.475951,1.96195 c -0.261777,1.07908 -0.914313,2.97828 -1.450086,4.22046 -2.322765,5.38527 -5.452533,8.76874 -10.476123,11.32533 -1.802285,0.91721 -6.196458,2.42346 -7.069954,2.42346 -0.754783,0 2.287345,-2.55876 7.619724,-6.409 1.455209,-1.05074 3.811372,-3.06772 5.235919,-4.48217 l 2.590085,-2.57175 -1.214442,-2.4181 c -1.832346,-3.64854 -4.373722,-7.19295 -9.38961,-13.09558 -7.818891,-9.20116 -9.0421389,-10.88119 -11.3626542,-15.60566 -1.3744543,-2.79833 -2.8463392,-6.91358 -2.5711709,-7.18875 0.4439597,-0.44396 2.7874805,0.89235 4.3533284,2.48232 l 1.6642957,1.68994 1.246121,-1.0992 c 1.230322,-1.08526 6.474682,-3.81704 8.786747,-4.577 0.654844,-0.21524 2.172891,-0.81347 3.373438,-1.3294 1.200547,-0.51593 2.182812,-0.84879 2.182812,-0.7397 0,0.37967 -2.521494,2.62992 -3.704167,3.3057 -0.654843,0.37418 -3.022414,1.40646 -5.261268,2.29396 -2.238855,0.8875 -4.412009,1.79016 -4.829232,2.00592 -0.755107,0.39048 -0.756726,0.39673 -0.352834,1.36338 0.497636,1.19101 0.348181,1.66054 -0.52857,1.66054 -0.36837,0 -0.669763,0.0611 -0.669763,0.13588 0,0.73617 4.041708,5.96258 7.654742,9.89848 7.04821,7.67806 9.796459,12.37986 10.591643,18.12053 l 0.186465,1.34615 0.328206,-0.79375 c 1.311726,-3.17235 1.693187,-8.66248 0.955967,-13.75864 -0.563407,-3.89466 -0.562815,-3.89112 -1.239527,-7.40803 -0.308008,-1.60073 -0.592354,-3.14854 -0.63188,-3.43958 -0.03953,-0.29104 -0.276521,-1.77932 -0.526657,-3.30729 -0.787742,-4.81198 -0.528777,-12.78242 0.434654,-13.37786 0.499299,-0.30858 1.864559,3.85745 2.216409,6.76327 0.293586,2.42465 0.701203,6.56615 0.924453,9.39271 0.586108,7.42074 0.885904,10.00572 1.488244,12.83229 0.663372,3.11297 1.942177,6.24728 2.996311,7.34387 1.9113,1.98827 4.324861,2.31636 6.198458,0.84259 0.379674,-0.29866 1.25159,-1.47959 1.937586,-2.6243 l 1.24727,-2.08128 1.037666,1.17885 c 1.311485,1.48992 2.127044,1.90298 3.622908,1.83487 1.606447,-0.0731 2.467261,-0.33065 4.507897,-1.34853 2.757477,-1.37544 4.996048,-2.21919 5.164535,-1.94657 0.205409,0.33236 -0.09702,2.74311 -0.708221,5.64538 -0.667168,3.16804 -0.658265,6.34672 0.02222,7.93423 0.285872,0.66691 0.602832,1.21256 0.704361,1.21256 0.714943,0 5.957938,-3.57677 7.865523,-5.36586 1.851437,-1.73642 1.851263,-1.7452 -0.116192,-5.83628 -1.064721,-2.21395 -1.292966,-2.94534 -1.293122,-4.14369 -1.06e-4,-0.80037 0.06891,-1.7128 0.15336,-2.02763 0.147847,-0.55115 0.203711,-0.53447 1.503056,0.44897 1.960462,1.48382 3.956693,1.84832 6.324259,1.15478 0.396113,-0.11603 0.342971,-0.37522 -0.463021,-2.25829 -0.928367,-2.169 -1.204082,-4.38132 -0.654375,-5.25069 0.206962,-0.32731 0.386487,-0.26162 1.084667,0.39688 1.360371,1.28305 1.835962,2.7202 1.822545,5.50739 -0.0064,1.33401 -0.159866,2.98707 -0.34099,3.67347 -0.286887,1.08724 -0.488129,1.33245 -1.562134,1.90351 -0.678056,0.36052 -1.715236,0.80003 -2.304846,0.97668 l -1.072026,0.32119 -0.03307,1.54562 c -0.01818,0.85009 -0.05468,1.63491 -0.08108,1.74405 -0.0264,0.10915 -0.145113,0.61516 -0.263798,1.12448 -0.505666,2.17002 -2.242185,4.48488 -5.178295,6.9029 -1.091406,0.89882 -1.984375,1.76654 -1.984375,1.92827 0,0.37674 2.707947,1.46582 4.7625,1.91538 4.046268,0.88538 8.796695,-0.0762 14.206213,-2.87568 2.832536,-1.46586 7.296512,-4.71688 9.336098,-6.79929 l 1.317308,-1.34497 -0.482558,-1.38466 c -0.265406,-0.76156 -1.075894,-2.45622 -1.801082,-3.7659 -1.780906,-3.21631 -2.67017,-5.94097 -2.530227,-7.7525 0.05959,-0.77137 0.284078,-1.57823 0.498861,-1.79301 0.3443,-0.3443 0.498155,-0.31869 1.300036,0.21638 0.985128,0.65735 2.902858,3.32039 3.383039,4.69784 0.275715,0.79091 0.258681,0.84453 -0.227869,0.7173 -0.669158,-0.17499 -0.657675,-0.0318 0.104317,1.30062 0.948272,1.65818 1.310793,3.57482 1.153385,6.0979 -0.118002,1.89143 -0.298281,2.55452 -1.212535,4.45988 -1.572546,3.27727 -5.35109,6.97586 -9.059392,8.8677 -0.570151,0.29086 -1.036199,0.61572 -1.035664,0.72191 5.29e-4,0.10618 0.347403,1.08603 0.770818,2.17743 0.767694,1.97883 0.773216,1.98505 1.973795,2.22536 1.057762,0.21173 1.36797,0.15589 2.55479,-0.45985 2.214931,-1.14915 4.117385,-2.81331 8.808247,-7.70495 3.97149,-4.14149 6.56854,-6.50725 9.05706,-8.25049 1.73311,-1.21406 5.30468,-2.70861 6.72929,-2.81592 0.43427,-0.0327 0.52811,-0.166 0.40854,-0.58029 -0.8732,-3.02559 -0.82311,-6.78433 0.11629,-8.72486 0.7356,-1.51954 2.17458,-2.79316 3.15581,-2.79316 0.41187,0 1.07044,0.25295 1.46348,0.56212 3.09446,2.4341 3.36175,9.42178 0.45933,12.00785 -0.71023,0.63282 -0.76757,0.78889 -0.50307,1.36939 0.45663,1.0022 2.14853,1.75548 3.49079,1.5542 1.51768,-0.22759 4.25014,-1.56121 4.74443,-2.3156 0.36854,-0.56246 0.35815,-0.99661 -0.1097,-4.58452 -0.50308,-3.85817 -0.71818,-5.30585 -1.31612,-8.85803 -0.15923,-0.94588 -0.33808,-2.01744 -0.39746,-2.38125 -0.0594,-0.3638 -0.23678,-1.43536 -0.39421,-2.38125 -1.52116,-9.13901 -2.03334,-13.26811 -2.28301,-18.40532 -0.11193,-2.30315 -0.0765,-3.30668 0.11251,-3.18984 1.15376,0.71306 4.28116,6.02545 5.021,8.52899 0.67814,2.29471 0.27358,2.91245 -1.18085,1.80311 l -0.95065,-0.7251 0.14152,0.76856 c 0.58697,3.18763 1.0203,5.46076 1.25616,6.5894 1.59773,7.6454 2.30543,14.18033 2.09269,19.32389 -0.13138,3.17666 -0.25798,3.98666 -0.87572,5.60329 -1.40147,3.6676 -4.19574,5.19055 -7.9327,4.32353 -1.18298,-0.27446 -2.56428,-1.50293 -3.53133,-3.14062 -0.7247,-1.22727 -0.89551,-1.20351 -1.36118,0.18928 -0.4507,1.34808 -0.36302,2.39589 0.32326,3.86313 1.25113,2.67481 4.93082,5.07682 8.97426,5.85816 1.87155,0.36164 2.52718,0.3739 4.68929,0.0876 5.83908,-0.77308 10.95352,-3.3409 17.27902,-8.6753 2.85192,-2.40508 3.19305,-2.88533 2.98834,-4.20711 -0.0853,-0.55049 -0.28251,-2.48918 -0.43834,-4.30819 -0.15583,-1.81901 -0.32473,-3.60494 -0.37532,-3.96875 -0.0506,-0.3638 -0.22049,-1.61395 -0.37754,-2.77812 -0.15705,-1.16417 -0.407,-2.95011 -0.55542,-3.96875 -0.43439,-2.98113 -0.53966,-3.72556 -0.8327,-5.88887 -0.15264,-1.12675 -0.33757,-4.6034 -0.41097,-7.7259 -0.10971,-4.66734 -0.0504,-6.16171 0.33333,-8.40052 0.25673,-1.49779 0.55703,-2.72325 0.66734,-2.72325 0.23374,0 0.87363,1.9378 1.26685,3.83646 0.59698,2.88249 0.84228,5.25789 1.09291,10.58333 0.14382,3.05594 0.32844,6.985 0.41027,8.73125 0.22831,4.87205 0.87867,10.60552 1.48561,13.09687 0.90694,3.72276 2.05383,5.5857 4.05366,6.58446 1.61688,0.80751 2.8677,0.82639 4.43053,0.0669 l 1.25194,-0.60843 -1.11965,-2.02926 c -1.02355,-1.85509 -1.11965,-2.19199 -1.11965,-3.92543 0,-1.0429 0.0915,-1.98766 0.2033,-2.09948 0.2822,-0.2822 2.24983,1.67518 2.84762,2.8328 1.63984,3.17552 0.33637,7.43419 -2.95324,9.64876 -1.42578,0.95984 -3.65445,1.20185 -4.941,0.53655 -1.0376,-0.53656 -2.36287,-2.09029 -2.87528,-3.37094 l -0.42116,-1.05257 -0.91698,1.66928 c -0.50434,0.9181 -1.21597,1.98702 -1.58142,2.37538 -0.36544,0.38836 -0.60409,0.80508 -0.53033,0.92604 0.0738,0.12097 -0.0855,1.35104 -0.35399,2.73348 -0.65004,3.34743 -0.63308,4.40785 0.091,5.68855 1.02833,1.81885 2.88506,1.97443 6.18611,0.51834 2.36292,-1.04229 4.32953,-2.57633 8.69056,-6.77906 5.33009,-5.13661 7.1043,-6.60389 9.18279,-7.59425 2.39832,-1.14274 3.86092,-1.43831 6.49135,-1.31183 3.16075,0.15198 4.78913,1.00525 5.77881,3.02808 0.67521,1.38009 0.9961,3.79356 0.5622,4.22855 -0.21133,0.21186 -1.12575,-0.21666 -4.29367,-2.01214 -1.42536,-0.80784 -2.13878,-1.05064 -3.09641,-1.0538 -1.93888,-0.006 -2.52299,0.40107 -3.57868,2.49644 -1.55595,3.08829 -2.00714,5.23307 -1.61687,7.68592 0.33302,2.09294 1.2159,3.55143 2.64362,4.36712 1.59098,0.90898 5.12792,1.01223 7.78504,0.22726 2.42623,-0.71676 6.31059,-2.55981 8.66358,-4.1107 2.36841,-1.56105 5.3595,-4.39436 6.03789,-5.7194 l 0.5132,-1.00239 -1.15573,-0.51123 c -0.63565,-0.28118 -2.26044,-0.63638 -3.61064,-0.78933 -2.45043,-0.27759 -3.17823,-0.50526 -4.05219,-1.26759 -0.68894,-0.60095 -0.63704,-4.01366 0.0853,-5.60601 1.2232,-2.6966 2.52044,-3.71169 4.74338,-3.71169 1.56465,0 2.45056,0.40045 3.6084,1.63107 1.71839,1.82641 2.35023,4.03964 2.32914,8.15851 -0.0233,4.55902 -0.74984,6.28938 -3.92647,9.35195 -3.22761,3.11172 -8.39242,6.23606 -12.7267,7.69875 -2.3169,0.78189 -6.2439,1.12807 -7.68343,0.67733 z m 19.52994,-21.41356 c 0.11267,-0.10462 -0.43353,-0.5132 -1.21378,-0.90797 -1.16447,-0.58916 -1.54483,-0.66977 -2.12307,-0.44993 -0.82333,0.31303 -0.87825,0.57277 -0.24143,1.14184 0.75252,0.67245 2.94422,0.80479 3.57828,0.21606 z m -76.85021,-7.61081 c 0.53599,-0.39216 1.07502,-0.79625 1.19783,-0.89799 0.29446,-0.24393 -1.45449,-4.19827 -1.85972,-4.20479 -1.57878,-0.0254 -2.63429,1.6035 -2.15942,3.33254 0.41613,1.51515 0.97714,2.48325 1.43904,2.48325 0.22426,0 0.84628,-0.32086 1.38227,-0.71301 z m 9.83808,27.97663 c 0,-0.50205 2.92408,-2.84539 4.5135,-3.61709 0.93731,-0.45508 3.13295,-1.32363 4.8792,-1.93012 1.74625,-0.60649 3.81821,-1.39673 4.60436,-1.75608 0.78614,-0.35935 1.47869,-0.60403 1.53899,-0.54372 0.19914,0.19913 -1.82081,2.04878 -3.20305,2.93298 -1.3933,0.89129 -4.72294,2.3448 -7.30592,3.18933 -0.80037,0.26168 -2.25888,0.80697 -3.24115,1.21176 -0.98226,0.40478 -1.78593,0.63561 -1.78593,0.51294 z m -21.26836,-5.92927 c -1.51423,-2.32317 -2.13294,-2.90864 -3.40404,-3.22116 -0.85696,-0.2107 -0.93228,-0.77042 -0.26458,-1.96622 0.39839,-0.7135 0.57381,-0.80924 1.25677,-0.6859 0.98139,0.17722 2.424,1.75474 2.78048,3.04051 0.42802,1.54378 0.78261,1.8988 0.78734,0.78827 0.005,-1.15541 0.90339,-3.85896 1.50243,-4.52089 0.23964,-0.2648 0.60074,-0.48146 0.80244,-0.48146 0.41953,0 1.39186,2.08056 1.20558,2.57968 -0.17304,0.46366 -0.86185,0.41158 -1.43667,-0.10862 -0.26701,-0.24164 -0.56031,-0.36451 -0.65177,-0.27304 -0.0915,0.0915 -0.25858,1.61191 -0.37136,3.37878 -0.11278,1.76687 -0.323,3.33043 -0.46715,3.47458 -0.17307,0.17307 -0.76392,-0.50782 -1.73947,-2.00453 z m 73.7617,-0.36349 c -0.31639,-0.2186 -0.30609,-3.36192 0.0154,-4.69899 0.42299,-1.75917 0.72725,-2.51093 0.95841,-2.36807 0.36723,0.22697 0.29318,1.32226 -0.18909,2.79673 -0.33622,1.02793 -0.3669,1.46549 -0.13797,1.96794 0.35568,0.78062 0.6953,0.8152 1.28156,0.1305 0.52602,-0.61435 0.87626,-0.47333 0.87626,0.35281 0,1.07318 -2.0034,2.37261 -2.80457,1.81908 z M 30.820442,165.19283 c -1.365936,-1.45813 -1.306328,-3.09023 0.238596,-6.53291 0.58279,-1.29868 0.836798,-1.62822 1.072965,-1.39206 0.236169,0.23617 0.171585,0.64197 -0.27281,1.71415 -0.878361,2.11921 -1.128514,3.15586 -0.955357,3.95907 0.18927,0.87793 0.73111,0.93811 1.287986,0.14306 0.289518,-0.41334 0.491919,-0.50204 0.691105,-0.30285 0.417383,0.41738 0.04396,1.52834 -0.7786,2.3164 l -0.723596,0.69325 z m 116.584548,-0.14456 c 0.35603,-0.66525 2.22594,-2.21064 3.38951,-2.80127 1.30985,-0.66488 7.48874,-2.79557 7.48874,-2.58237 0,0.10434 -0.50602,0.68432 -1.12448,1.28884 -1.19434,1.16743 -3.15358,2.17959 -6.81302,3.51965 -3.3846,1.23943 -3.28593,1.22013 -2.94075,0.57515 z M 39.174796,163.92398 c -0.824056,-0.2315 -2.790614,-1.2599 -3.45979,-1.80927 -0.254661,-0.20907 -0.463021,-0.55515 -0.463021,-0.76906 0,-0.65436 1.376125,-3.49818 1.689778,-3.49199 0.480523,0.009 2.527017,1.0011 3.26649,1.58277 l 0.685946,0.53957 0.644665,-0.60106 c 0.354568,-0.33058 0.944861,-1.19636 1.311767,-1.92397 0.366903,-0.7276 0.709959,-1.37018 0.762349,-1.42795 0.21799,-0.24037 3.568851,1.63907 4.079322,2.28803 0.660197,0.8393 0.543627,1.57078 -0.476485,2.98993 -0.657897,0.91526 -0.752946,0.95935 -1.504402,0.69788 -0.441177,-0.15351 -1.331463,-0.61451 -1.978417,-1.02444 -0.646954,-0.40993 -1.326544,-0.74532 -1.510202,-0.74532 -0.388771,0 -1.560976,1.91593 -1.822646,2.97906 -0.221197,0.89869 -0.335894,0.96569 -1.225354,0.71582 z m 12.027252,-5.99455 c -0.502528,-1.80079 0.22891,-6.96075 0.986705,-6.96075 0.517851,0 0.523809,1.11866 0.01212,2.27542 -0.715375,1.61723 -0.68722,2.36863 0.118957,3.17481 0.672253,0.67225 1.188408,0.65406 1.188408,-0.0419 0,-0.58048 0.470212,-0.45465 0.671549,0.17971 0.280242,0.88296 -0.658225,1.93568 -1.813396,2.03416 -0.852635,0.0727 -0.979598,5.3e-4 -1.164341,-0.66146 z m 79.071652,-0.62037 c -0.39329,-1.12819 -0.20283,-4.37374 0.34769,-5.9247 0.60325,-1.69953 1.67909,-3.39045 2.02223,-3.17837 0.40448,0.24998 0.0238,1.60485 -0.98546,3.50726 -1.22561,2.31026 -1.20492,4.28251 0.0449,4.28251 0.38295,0 0.67875,-0.19983 0.78327,-0.52916 0.17052,-0.53726 1.19063,-0.75667 1.19063,-0.25609 0,0.63967 -0.78492,2.07198 -1.35384,2.47047 -0.98201,0.68783 -1.72716,0.5526 -2.04945,-0.37192 z m 7.70984,-0.8508 c -0.25421,-3.69824 -1.20387,-12.37418 -2.17927,-19.90937 -0.1507,-1.16417 -0.3276,-2.59292 -0.39312,-3.175 -0.0655,-0.58208 -0.24439,-2.0406 -0.39748,-3.24115 -0.51295,-4.02257 -0.81891,-6.53929 -0.94083,-7.73906 -0.0665,-0.65484 -0.24773,-2.44078 -0.40263,-3.96875 -0.15491,-1.52797 -0.34241,-4.14734 -0.41667,-5.82083 l -0.13503,-3.04271 1.05095,1.13367 c 1.17836,1.27111 3.11808,4.8875 3.97756,7.41572 0.78089,2.29706 0.36791,2.82866 -1.11764,1.43863 l -0.77761,-0.7276 0.16107,2.51354 c 0.14538,2.26882 1.13471,9.24597 2.14153,15.103 1.055,6.13736 1.17055,14.67124 0.25496,18.82981 -0.4851,2.20328 -0.73171,2.55869 -0.82579,1.1901 z m -57.487803,-1.35728 c 0,-0.6051 -1.449459,-2.14846 -2.722968,-2.89937 -1.874276,-1.10514 -2.622788,-2.07575 -2.669434,-3.46152 -0.03708,-1.10157 0.01463,-1.21099 0.572291,-1.21099 1.493975,0 2.860712,1.24038 3.922686,3.56004 0.889008,1.94185 1.116206,1.59642 1.143411,-1.73842 0.01519,-1.86003 0.115916,-2.40315 0.547531,-2.95186 0.382193,-0.48588 0.694156,-0.63223 1.124479,-0.52753 1.082614,0.2634 1.521587,0.86954 1.521587,2.10103 v 1.15499 l -1.043934,-0.53257 c -0.802828,-0.40958 -1.093092,-0.45665 -1.256771,-0.20382 -0.11706,0.18082 -0.272368,1.80749 -0.345128,3.61483 -0.09242,2.29577 -0.23196,3.31904 -0.463021,3.39548 -0.181901,0.0602 -0.330729,-0.075 -0.330729,-0.30029 z m 20.324453,-1.35894 c -0.24074,-0.40207 -0.95269,-4.41884 -1.406043,-7.93273 -0.225295,-1.74625 -0.5251,-4.06797 -0.666237,-5.15938 -0.141134,-1.09141 -0.381971,-3.29406 -0.535194,-4.89479 -0.271206,-2.8333 -0.43281,-4.21439 -1.037148,-8.86354 -0.422907,-3.25343 -1.287264,-7.26351 -2.020239,-9.37269 -0.350171,-1.00763 -0.636675,-2.40102 -0.636675,-3.09641 0,-1.28399 0.427892,-2.61215 0.841558,-2.61215 0.799854,0 4.956798,8.12389 4.975428,9.72343 0.007,0.62698 -0.924038,0.33338 -1.671013,-0.52678 l -0.748818,-0.86228 0.143912,0.79375 c 0.07915,0.43656 0.613309,3.11547 1.187016,5.95313 0.573703,2.83765 1.125933,5.63562 1.227173,6.21771 0.10124,0.58208 0.22643,1.29645 0.27818,1.5875 0.67372,3.78853 0.90826,6.6641 0.894,10.96066 -0.015,4.5077 -0.4453,8.72022 -0.8259,8.08457 z m 66.46994,-3.98251 c 2.86721,-2.9391 6.32707,-4.69414 17.18686,-8.71815 1.81901,-0.67402 4.51996,-1.80074 6.00212,-2.50382 2.2818,-1.08241 2.76488,-1.22712 3.15184,-0.94416 0.25136,0.1838 0.39187,0.50395 0.31224,0.71146 -0.26759,0.69732 -8.49597,4.71076 -16.34537,7.97253 -1.23692,0.514 -4.23889,1.77981 -6.67104,2.81292 -2.43215,1.0331 -4.51077,1.87837 -4.61915,1.87837 -0.10839,0 0.33374,-0.54412 0.9825,-1.20915 z m -4.32375,-4.82206 c -1.33394,-1.36608 -1.58734,-2.33373 -0.9714,-3.70947 0.81346,-1.81693 3.67255,-3.53852 9.76072,-5.87737 3.58202,-1.37608 4.88202,-1.91435 11.0015,-4.5552 5.16404,-2.22853 9.12812,-3.48048 9.12812,-2.88286 0,0.32912 -2.52889,1.99011 -5.02708,3.30182 -1.23693,0.64946 -4.27302,1.97656 -6.74687,2.94911 -8.47236,3.33073 -9.26452,3.65918 -11.60145,4.81028 -1.28757,0.63421 -2.97769,1.57571 -3.75583,2.0922 -1.51559,1.00599 -1.5531,1.16894 -0.58933,2.55996 0.51592,0.74465 0.5529,2.07162 0.0622,2.23224 -0.15068,0.0493 -0.71795,-0.365 -1.26059,-0.92071 z m -57.85715,-3.60704 c -0.38781,-1.01999 -0.31961,-2.63107 0.20714,-4.89348 0.42378,-1.82017 1.10853,-2.8523 1.10853,-1.67091 0,0.73346 0.74226,1.30004 2.17482,1.66008 1.55853,0.3917 1.88858,0.783 1.86933,2.21623 -0.028,2.08515 -1.04257,2.98551 -3.6698,3.25666 -1.35474,0.13982 -1.43036,0.11438 -1.69002,-0.56858 z m 3.31521,-1.84949 c 0.63752,-0.46617 0.48507,-0.62415 -1.04745,-1.08537 l -1.21667,-0.36616 v 0.91338 c 0,0.85744 0.0536,0.91339 0.87547,0.91339 0.48151,0 1.1064,-0.16886 1.38865,-0.37524 z m 50.84431,-0.63453 c -1.86369,-1.04734 -3.10218,-2.12103 -3.10218,-2.68938 0,-0.27587 0.34387,-1.134 0.76415,-1.90695 0.54624,-1.00462 0.70427,-1.5624 0.55417,-1.9561 -0.26142,-0.68572 -1.59334,-1.82239 -2.94115,-2.50999 -0.56265,-0.28704 -1.023,-0.57676 -1.023,-0.6438 0,-0.10936 1.60483,-3.53401 1.79077,-3.82144 0.12323,-0.19049 2.74442,1.18255 3.96783,2.07844 0.9816,0.71881 1.10648,0.92038 0.95997,1.54942 -0.0926,0.39771 -0.51111,1.26932 -0.92996,1.9369 -0.41884,0.66758 -0.76153,1.32274 -0.76153,1.4559 0,0.13316 0.7921,0.77758 1.76021,1.43205 0.96812,0.65446 1.8788,1.38014 2.02373,1.61262 0.19467,0.31225 0.0356,0.91709 -0.60875,2.3151 -0.47975,1.04083 -0.94395,1.88451 -1.03154,1.87484 -0.0876,-0.01 -0.72782,-0.3371 -1.42272,-0.72761 z m -28.16435,-0.30593 c -0.46904,-0.28598 -0.92958,-0.82592 -1.02344,-1.19986 -0.26766,-1.06647 0.0519,-3.80447 0.66,-5.65484 0.30513,-0.92847 0.55478,-1.8512 0.55478,-2.05053 0,-0.48311 0.38399,-0.45926 0.80672,0.0501 0.28455,0.34286 0.22301,0.76604 -0.36448,2.50647 -0.78129,2.31458 -0.88746,3.61202 -0.35515,4.34 0.2871,0.39263 0.45385,0.42626 0.90812,0.18314 0.30605,-0.16379 0.63262,-0.53778 0.72571,-0.83109 0.24812,-0.78177 0.66033,-0.36956 0.66033,0.66033 0,0.57161 -0.24511,1.18143 -0.68498,1.70418 -0.80854,0.9609 -0.79433,0.9587 -1.88761,0.2921 z m -85.234733,-1.35014 c -0.344913,-0.13808 -0.979125,-0.54725 -1.409364,-0.90927 -0.430239,-0.36202 -0.951709,-0.65822 -1.158827,-0.65822 -0.493147,0 -0.48537,-0.0862 0.197014,-2.18282 0.469977,-1.44403 0.686318,-1.78593 1.130059,-1.78593 0.98716,0 2.337213,0.50468 2.991123,1.11816 l 0.641284,0.60163 0.638323,-0.74126 c 0.351075,-0.4077 0.713494,-1.21137 0.805373,-1.78594 0.15345,-0.95964 0.234294,-1.04417 0.993129,-1.03843 0.454343,0.003 1.599986,0.39039 2.545872,0.8599 1.463894,0.72663 1.732928,0.96895 1.808075,1.62855 0.04878,0.42816 -0.144135,1.1977 -0.431133,1.71979 -0.285682,0.51969 -0.484773,1.15325 -0.442426,1.40791 0.04916,0.29562 -0.09237,0.46302 -0.391475,0.46302 -0.491395,0 -2.808698,-1.11702 -4.045929,-1.95027 l -0.72476,-0.48811 -0.532011,1.24112 c -0.292605,0.68262 -0.532008,1.40012 -0.532008,1.59443 0,1.13905 -0.718667,1.45165 -2.082319,0.90574 z m 37.139612,0.0958 c -0.291042,-0.0731 -1.273308,-0.54703 -2.182813,-1.05317 -1.254691,-0.69823 -1.653646,-1.0618 -1.653646,-1.50699 0,-0.84018 1.301152,-3.33647 1.73908,-3.33647 0.202859,0 1.263772,0.44283 2.357586,0.98407 1.832078,0.90653 1.987587,1.04723 1.973969,1.78593 -0.01995,1.08195 -0.89136,3.17394 -1.34184,3.22134 -0.199745,0.021 -0.601295,-0.0216 -0.892336,-0.0947 z m 58.876521,-1.92115 c -0.69729,-0.69729 -0.88789,-1.57288 -0.73787,-3.38981 0.13255,-1.60528 1.13227,-4.55442 1.5439,-4.55442 0.3821,0 0.28905,1.68342 -0.1513,2.73732 -0.51155,1.22432 -0.50552,2.54607 0.015,3.28923 0.53431,0.76283 1.44021,0.78599 1.44021,0.0368 0,-0.72837 0.65213,-0.50888 0.69101,0.23258 0.0162,0.30997 -0.19036,0.92518 -0.45914,1.36715 -0.57974,0.95331 -1.55281,1.07013 -2.34181,0.28113 z m -77.926522,-1.73596 c -0.873125,-0.4964 -1.928482,-0.97769 -2.345238,-1.06951 -0.687165,-0.15141 -0.74455,-0.24821 -0.616151,-1.03946 0.07787,-0.47987 0.466233,-1.53551 0.863018,-2.34585 l 0.721432,-1.47335 2.375244,1.22676 c 1.793192,0.92615 2.480588,1.16256 2.805136,0.96476 0.23644,-0.1441 0.823412,-0.99729 1.304383,-1.89598 0.485507,-0.90716 1.054216,-1.63397 1.27854,-1.63397 0.664229,0 3.800087,2.46628 3.800092,2.98868 0,0.26133 -0.297654,1.03429 -0.661456,1.71769 -0.363802,0.6834 -0.661458,1.39232 -0.661458,1.57538 0,0.18306 -0.06293,0.33283 -0.139838,0.33283 -0.361635,0 -3.239182,-1.59259 -3.546411,-1.96278 -0.796468,-0.95969 -2.100477,0.0321 -2.928454,2.22737 -0.192103,0.50932 -0.419491,1.00793 -0.505309,1.10802 -0.08582,0.10008 -0.870405,-0.22418 -1.74353,-0.72059 z m 106.823372,-2.54399 c -1.72988,-3.62731 -1.62308,-7.45109 0.22448,-8.03749 0.82988,-0.26339 0.57305,-0.65387 -0.43007,-0.65387 -0.84277,0 -0.90824,-0.0507 -0.66146,-0.51177 0.15064,-0.28148 0.27389,-0.74499 0.27389,-1.03003 0,-0.72248 0.62929,-0.88848 2.03058,-0.53563 1.35806,0.34196 2.20166,1.39245 2.1995,2.73889 -0.001,0.73755 -0.11251,0.82842 -1.5725,1.28351 -2.60568,0.81219 -2.5556,0.70285 -1.73925,3.79785 0.38955,1.4769 0.66179,3.12563 0.60917,3.68923 l -0.0952,1.01899 z m -61.38118,0.10136 c -1.51928,-0.76571 -1.74696,-1.38697 -0.99219,-2.7073 0.20797,-0.36381 0.38234,-0.97615 0.3875,-1.36076 0.005,-0.38461 0.16382,-0.75856 0.35259,-0.831 0.49836,-0.19124 2.16905,0.43973 3.37236,1.27362 1.28926,0.89346 1.63747,0.68323 2.28833,-1.38152 0.43519,-1.38058 0.4921,-1.44146 1.21274,-1.29733 0.41587,0.0832 1.51075,0.57324 2.43308,1.08903 1.87742,1.04992 1.85323,0.9204 0.65267,3.49391 -0.42466,0.91029 -0.80828,1.38496 -1.12262,1.38906 -0.26263,0.003 -1.27466,-0.47506 -2.24895,-1.06331 l -1.77145,-1.06955 -0.46638,0.57384 c -0.2565,0.31561 -0.53434,0.8862 -0.61741,1.26798 -0.0831,0.38178 -0.19688,0.84298 -0.25292,1.02488 -0.16714,0.54253 -1.74325,0.34644 -3.22735,-0.40155 z m -73.193048,-0.0848 c -2.236687,-1.75938 -1.871678,-4.42427 0.960533,-7.01275 2.27552,-2.0797 4.694574,-3.20917 14.685635,-6.85684 l 2.711979,-0.99013 v -1.57757 c 0,-1.21332 -0.205703,-2.04567 -0.890881,-3.60482 -1.163915,-2.64854 -1.413084,-3.74703 -0.849934,-3.74703 1.248106,0 2.554769,2.58718 2.732175,5.40967 0.07366,1.17203 0.172077,2.17424 0.218691,2.22714 0.221591,0.25149 5.497118,-1.61125 11.886825,-4.19712 1.018646,-0.41224 2.923646,-1.09894 4.233333,-1.526 4.29396,-1.40017 4.534472,-1.36491 2.915269,0.42735 -1.361273,1.50677 -3.272509,2.4067 -11.879305,5.59353 -13.763586,5.09623 -18.61012,7.20053 -23.342032,10.1348 -3.285381,2.03726 -3.314229,2.08408 -1.910702,3.10067 1.554938,1.12625 1.676234,1.42227 0.972699,2.37385 -0.696442,0.94199 -1.460998,1.0187 -2.444285,0.24525 z m -14.174196,-1.82872 c -0.1895,-0.36381 -1.212228,-1.56039 -2.272729,-2.65908 -1.431098,-1.48263 -1.975434,-2.24948 -2.111462,-2.97457 -0.373396,-1.99037 0.270198,-2.26066 1.953034,-0.82022 1.176571,1.0071 2.155166,2.61838 2.155166,3.54852 0,0.30543 0.10236,0.49206 0.227466,0.41474 0.125107,-0.0773 0.28747,-1.19294 0.360806,-2.47915 0.07334,-1.28622 0.272822,-2.5992 0.443301,-2.91774 0.667765,-1.24773 2.510684,-0.29971 2.466094,1.26859 -0.0347,1.22051 -0.296837,1.44375 -0.961777,0.81907 l -0.583285,-0.54797 -0.346089,2.72405 c -0.190349,1.49823 -0.490065,3.07532 -0.666035,3.50464 l -0.319946,0.78058 z M 182.3867,128.99774 c -0.0491,-1.74423 -0.81793,-3.98669 -2.57762,-7.51841 -1.24813,-2.50501 -1.79115,-3.9101 -1.88381,-4.87445 -0.0774,-0.80576 -0.024,-1.35492 0.13185,-1.35492 0.50834,0 2.62154,2.53202 3.3412,4.0034 1.10239,2.25388 1.48742,4.0569 1.46166,6.84452 -0.0234,2.53053 -0.41595,4.9358 -0.47328,2.89986 z M 52.185319,128.01742 c 0,-0.24288 0.755089,-1.17835 1.677977,-2.07883 1.921463,-1.8748 4.095943,-3.01953 9.699107,-5.106 3.403499,-1.26737 17.848602,-6.86415 19.37978,-7.50873 0.59531,-0.2506 0.802,-0.23055 1.143511,0.11097 0.379425,0.37942 0.290607,0.51738 -0.989018,1.53624 -1.873115,1.49139 -4.804855,2.86606 -9.612398,4.50718 -3.580564,1.22227 -6.081644,2.25771 -14.552084,6.02452 -6.548972,2.91233 -6.746875,2.98609 -6.746875,2.51465 z m 48.683331,0.21041 c 0,-0.50718 2.4431,-2.586 5.40138,-4.596 3.67331,-2.49584 6.50487,-5.14365 6.50487,-6.08275 0,-0.47454 -0.26529,-0.74099 -1.12447,-1.12938 -1.26491,-0.57179 -1.48025,-1.14614 -0.98846,-2.63629 0.40582,-1.22963 1.37924,-2.35331 2.40764,-2.77929 0.74727,-0.30953 0.8732,-0.29289 1.20366,0.15904 0.6825,0.93337 1.01678,2.48869 0.65827,3.06275 -0.42358,0.67827 -0.20271,0.98179 1.14985,1.58009 1.44361,0.63857 1.78787,1.06813 1.56565,1.95353 -0.25057,0.99838 -0.68421,1.06277 -1.8463,0.27415 -1.1378,-0.77212 -1.64435,-0.77476 -2.07144,-0.0108 -1.36844,2.44793 -4.14678,5.20219 -7.25039,7.18755 -2.34015,1.49697 -5.61026,3.25573 -5.61026,3.01736 z m 12.8323,-13.77165 c 0.0899,-0.14552 0.0374,-0.26458 -0.11668,-0.26458 -0.15411,0 -0.2802,-0.35719 -0.2802,-0.79375 0,-0.87614 -0.0662,-0.91856 -0.81114,-0.51986 -0.62698,0.33554 -0.64812,0.72441 -0.0739,1.35892 0.48317,0.53389 1.02968,0.62738 1.28191,0.21927 z m 49.16336,13.69219 c -0.69156,-1.07553 -0.87728,-1.75161 -0.88048,-3.20525 -0.004,-1.68175 0.9755,-5.98902 1.36153,-5.98902 0.51787,0 0.51439,1.42591 -0.008,3.14467 -0.30608,1.00775 -0.55652,2.14903 -0.55652,2.53619 0,1.62397 1.07973,2.23524 2.11666,1.1983 0.66567,-0.66566 0.79375,-0.66354 0.79375,0.0131 0,0.86276 -0.69394,1.97312 -1.44781,2.3166 -0.87686,0.39953 -1.11477,0.397 -1.37945,-0.0146 z m -75.447721,-0.99383 c -0.187577,-0.42376 -1.077362,-1.29824 -1.977303,-1.94327 -2.394077,-1.71597 -2.947149,-2.39347 -2.947149,-3.61022 0,-0.56506 0.08583,-1.11321 0.19072,-1.2181 0.104894,-0.1049 0.671203,-0.0468 1.258464,0.12919 1.173591,0.35161 2.380779,1.75011 2.919349,3.382 0.422492,1.28016 0.728848,0.8335 1.038043,-1.51344 0.417049,-3.16561 0.575942,-3.54643 1.518734,-3.63991 1.028764,-0.10201 1.661624,0.70706 1.661624,2.12426 0,1.09217 -0.16441,1.19885 -0.941618,0.611 -0.282475,-0.21365 -0.591241,-0.39224 -0.686144,-0.39687 -0.395253,-0.0193 -0.753489,1.79999 -0.753489,3.82652 0,1.74161 -0.09253,2.25221 -0.470093,2.59389 -0.437801,0.39621 -0.493516,0.37251 -0.811138,-0.34505 z m 69.872961,-7.58242 c -0.18272,-0.0737 -0.81371,-0.95837 -1.40219,-1.96599 -1.10415,-1.89056 -1.7102,-2.45608 -2.96193,-2.76384 -0.66704,-0.164 -0.72761,-0.28394 -0.72761,-1.44073 0,-1.80033 0.41459,-2.03055 1.92814,-1.07069 1.24043,0.78666 2.40778,2.31378 2.7202,3.55854 0.0943,0.37589 0.26722,0.68344 0.38417,0.68344 0.21862,0 0.36995,-0.80913 0.66804,-3.57188 0.20523,-1.90211 0.44689,-2.24896 1.56688,-2.24896 1.03909,0 1.76354,0.71812 1.59698,1.58302 -0.15282,0.7935 -0.54345,1.20462 -0.78037,0.82129 -0.29829,-0.48265 -1.16841,-0.32098 -1.48817,0.2765 -0.16606,0.31028 -0.3479,1.53067 -0.4041,2.71198 -0.11253,2.36538 -0.31835,3.61419 -0.5904,3.58216 -0.0976,-0.0115 -0.32691,-0.0812 -0.50964,-0.15484 z m -53.42891,-0.37397 c -1.38441,-0.51469 -1.88942,-2.79078 -1.14777,-5.17307 0.65102,-2.09121 1.14453,-3.27307 1.36673,-3.27307 0.35798,0 0.26844,1.40816 -0.16824,2.64584 -0.83097,2.35524 -0.33542,4.37928 0.90913,3.71321 0.30034,-0.16073 0.54608,-0.40712 0.54608,-0.54752 0,-0.40837 0.45748,-0.29456 0.63072,0.1569 0.18409,0.47973 -0.71276,2.37208 -1.21476,2.56313 -0.1881,0.0716 -0.60295,0.0331 -0.92189,-0.0854 z m 66.0028,-1.58107 c -0.94197,-1.05747 -1.78063,-1.72271 -2.46853,-1.95809 -0.90435,-0.30944 -1.05217,-0.47347 -1.1198,-1.24267 -0.0429,-0.4874 0.0896,-1.11506 0.29437,-1.3948 0.36468,-0.49821 0.39874,-0.4955 1.66542,0.1323 0.97986,0.48564 1.49561,0.98083 2.12891,2.04405 0.94426,1.58527 0.91064,1.62499 1.29976,-1.53544 0.29719,-2.41374 0.43205,-2.6052 1.79138,-2.54312 1.54061,0.0704 2.02621,0.49936 2.02621,1.79007 0,1.19393 -0.54936,1.5854 -1.28746,0.91743 -1.3194,-1.19404 -2.09973,-0.0517 -1.7696,2.59056 0.18938,1.51573 -0.1556,2.80131 -0.75172,2.80131 -0.21026,0 -1.02428,-0.72072 -1.80894,-1.6016 z M 9.8519839,117.14109 c 0,-0.81116 4.7815811,-4.23378 7.8625121,-5.62793 3.255386,-1.47309 9.599989,-3.55582 9.599989,-3.15136 0,0.3819 -3.338407,2.6351 -5.499333,3.71168 -1.12271,0.55934 -3.81541,1.74773 -5.983776,2.64085 -2.168366,0.89313 -4.400788,1.85768 -4.960938,2.14344 -0.560149,0.28577 -1.0184541,0.41326 -1.0184541,0.28332 z m 33.1402921,-0.18042 c -0.318747,-0.22325 -1.119161,-1.1072 -1.778702,-1.96432 -0.840552,-1.09236 -1.591529,-1.74243 -2.511197,-2.17377 -1.511419,-0.70887 -1.659091,-1.22428 -0.778423,-2.7169 0.643007,-1.08982 0.850554,-1.13059 2.04583,-0.40186 0.638175,0.38908 1.130925,1.07752 1.785938,2.49521 0.497527,1.07684 0.904597,2.08475 0.904597,2.23981 0,0.15506 0.114474,0.28192 0.254386,0.28192 0.324567,0 0.710351,-1.50742 0.947973,-3.70416 0.282004,-2.60704 0.453827,-2.91042 1.648357,-2.91042 0.905703,0 1.045028,0.0921 1.329465,0.87868 0.511837,1.41546 0.417404,2.03174 -0.311327,2.03174 -0.345983,0 -0.77728,-0.1786 -0.958437,-0.39688 -0.650307,-0.78357 -0.925508,-0.42146 -0.956734,1.25886 -0.02361,1.2704 -0.795615,5.48802 -1.004543,5.48802 -0.02072,0 -0.29844,-0.18267 -0.617183,-0.40593 z m 44.316482,-5.60651 c -1.782114,-1.9966 -2.050521,-2.42675 -2.050521,-3.28619 0,-0.54389 0.115565,-1.06032 0.256813,-1.14761 0.284276,-0.17569 1.351433,0.36011 2.428422,1.21927 1.55484,1.24036 7.558228,0.81413 11.146817,-0.79141 0.614301,-0.27484 1.712221,-0.76613 2.439821,-1.09176 3.22535,-1.44346 4.61546,-1.89294 6.31469,-2.0418 1.70022,-0.14894 1.80693,-0.12682 1.66347,0.34483 -0.0843,0.27719 -0.27079,1.03976 -0.41442,1.69461 -0.14936,0.68102 -0.51827,1.39885 -0.8619,1.67713 -0.75846,0.61422 -0.96749,0.15138 -0.35428,-0.78449 0.27161,-0.41454 0.38218,-0.92489 0.28461,-1.31367 -0.15858,-0.63179 -0.1839,-0.62361 -4.05733,1.3115 -5.891371,2.94326 -8.15199,3.60744 -12.278225,3.60744 h -2.4013 l 0.195111,0.8599 c 0.583346,2.57094 0.172128,2.52509 -2.311778,-0.25775 z m 37.416942,-2.89441 c -0.33626,-0.60085 0.20115,-1.69447 1.13256,-2.30475 0.62555,-0.40988 0.72328,-0.41062 1.33451,-0.0101 0.96216,0.63044 1.96009,0.30641 2.16176,-0.70191 0.17828,-0.89144 0.61718,-0.90516 1.01176,-0.0316 0.14365,0.31801 0.3839,0.57819 0.53389,0.57819 0.30756,0 1.99962,-1.09739 3.12784,-2.02855 0.85751,-0.70775 2.40532,-0.81731 3.18669,-0.22557 1.11187,0.84202 -0.44243,3.74219 -2.34146,4.36893 -0.54591,0.18017 -2.48606,0.26702 -4.98342,0.22308 -3.01205,-0.053 -4.19643,0.0168 -4.49543,0.26497 -0.3357,0.2786 -0.45142,0.25565 -0.6687,-0.13262 z m 10.2916,-2.21496 c 0.6418,-0.34349 0.6697,-1.04903 0.0415,-1.04903 -0.55226,0 -1.64637,0.7133 -1.64637,1.07334 0,0.33258 0.96535,0.31796 1.60489,-0.0243 z"
       id="path21" />
  </g>
</svg>
